{
	"asset":{
		"generator":"Khronos glTF Blender I/O v3.6.27",
		"version":"2.0"
	},
	"extensionsUsed":[
		"KHR_materials_specular",
		"KHR_materials_ior"
	],
	"scene":0,
	"scenes":[
		{
			"name":"Scene",
			"nodes":[
				0
			]
		}
	],
	"nodes":[
		{
			"mesh":0,
			"name":"radar_statsion02",
			"scale":[
				0.009999999776482582,
				0.009999999776482582,
				0.009999999776482582
			],
			"translation":[
				-1.2903671264648438,
				0,
				-0.6088066101074219
			]
		}
	],
	"materials":[
		{
			"doubleSided":true,
			"extensions":{
				"KHR_materials_specular":{
					"specularColorTexture":{
						"index":0
					},
					"specularColorFactor":[
						2.1481711700820347,
						2.1481711700820347,
						2.1481711700820347
					]
				},
				"KHR_materials_ior":{
					"ior":1.4500000476837158
				}
			},
			"name":"radar_statsion02_INST",
			"normalTexture":{
				"index":1
			},
			"pbrMetallicRoughness":{
				"baseColorTexture":{
					"index":2
				},
				"roughnessFactor":0.858578622341156
			}
		}
	],
	"meshes":[
		{
			"name":"\u7f51\u683c",
			"primitives":[
				{
					"attributes":{
						"COLOR_0":0,
						"POSITION":1,
						"NORMAL":2,
						"TEXCOORD_0":3,
						"TEXCOORD_1":4
					},
					"indices":5,
					"material":0
				}
			]
		}
	],
	"textures":[
		{
			"sampler":0,
			"source":0
		},
		{
			"sampler":0,
			"source":1
		},
		{
			"sampler":0,
			"source":2
		}
	],
	"images":[
		{
			"bufferView":6,
			"mimeType":"image/png",
			"name":"Image"
		},
		{
			"bufferView":7,
			"mimeType":"image/png",
			"name":"_5fcc924"
		},
		{
			"bufferView":8,
			"mimeType":"image/png",
			"name":"_457de3d"
		}
	],
	"accessors":[
		{
			"bufferView":0,
			"componentType":5123,
			"count":2059,
			"normalized":true,
			"type":"VEC4"
		},
		{
			"bufferView":1,
			"componentType":5126,
			"count":2059,
			"max":[
				1526.138427734375,
				2521.304443359375,
				1389.4947509765625
			],
			"min":[
				-651.020263671875,
				-3.9223530292510986,
				-1189.674560546875
			],
			"type":"VEC3"
		},
		{
			"bufferView":2,
			"componentType":5126,
			"count":2059,
			"type":"VEC3"
		},
		{
			"bufferView":3,
			"componentType":5126,
			"count":2059,
			"type":"VEC2"
		},
		{
			"bufferView":4,
			"componentType":5126,
			"count":2059,
			"type":"VEC2"
		},
		{
			"bufferView":5,
			"componentType":5123,
			"count":5796,
			"type":"SCALAR"
		}
	],
	"bufferViews":[
		{
			"buffer":0,
			"byteLength":16472,
			"byteOffset":0,
			"target":34962
		},
		{
			"buffer":0,
			"byteLength":24708,
			"byteOffset":16472,
			"target":34962
		},
		{
			"buffer":0,
			"byteLength":24708,
			"byteOffset":41180,
			"target":34962
		},
		{
			"buffer":0,
			"byteLength":16472,
			"byteOffset":65888,
			"target":34962
		},
		{
			"buffer":0,
			"byteLength":16472,
			"byteOffset":82360,
			"target":34962
		},
		{
			"buffer":0,
			"byteLength":11592,
			"byteOffset":98832,
			"target":34963
		},
		{
			"buffer":0,
			"byteLength":189823,
			"byteOffset":110424
		},
		{
			"buffer":0,
			"byteLength":64798,
			"byteOffset":300248
		},
		{
			"buffer":0,
			"byteLength":306796,
			"byteOffset":365048
		}
	],
	"samplers":[
		{
			"magFilter":9729,
			"minFilter":9987
		}
	],
	"buffers":[
		{
			"byteLength":671844,
			"uri":"data:application/octet-stream;base64,"
		}
	]
}
