{
	"asset":{
		"generator":"Khronos glTF Blender I/O v3.6.27",
		"version":"2.0"
	},
	"extensionsUsed":[
		"KHR_materials_specular",
		"KHR_materials_ior"
	],
	"scene":0,
	"scenes":[
		{
			"name":"Scene",
			"nodes":[
				0,
				1,
				2,
				3,
				4
			]
		}
	],
	"nodes":[
		{
			"mesh":0,
			"name":"DrawCall_02",
			"rotation":[
				-0.6388753056526184,
				0,
				0,
				0.7693102955818176
			],
			"scale":[
				0.2540000081062317,
				0.2540000081062317,
				0.2540000081062317
			],
			"translation":[
				-0.009205818176269531,
				3.7989001274108887,
				0.7280048131942749
			]
		},
		{
			"mesh":1,
			"name":"DrawCall_1308",
			"rotation":[
				-0.6388753056526184,
				0,
				0,
				0.7693102955818176
			],
			"scale":[
				0.2540000081062317,
				0.2540000081062317,
				0.2540000081062317
			],
			"translation":[
				-0.009205818176269531,
				3.7989001274108887,
				0.7280048131942749
			]
		},
		{
			"mesh":2,
			"name":"DrawCall_1309",
			"rotation":[
				-0.6388753056526184,
				0,
				0,
				0.7693102955818176
			],
			"scale":[
				0.2540000081062317,
				0.2540000081062317,
				0.2540000081062317
			],
			"translation":[
				-0.009205818176269531,
				3.7989001274108887,
				0.7280048131942749
			]
		},
		{
			"mesh":3,
			"name":"DrawCall_1310",
			"rotation":[
				-0.6388753056526184,
				0,
				0,
				0.7693102955818176
			],
			"scale":[
				0.2540000081062317,
				0.2540000081062317,
				0.2540000081062317
			],
			"translation":[
				-0.009205818176269531,
				3.7989001274108887,
				0.7280048131942749
			]
		},
		{
			"mesh":4,
			"name":"DrawCall_1311",
			"rotation":[
				-0.6388753056526184,
				0,
				0,
				0.7693102955818176
			],
			"scale":[
				0.2540000081062317,
				0.2540000081062317,
				0.2540000081062317
			],
			"translation":[
				-0.009205818176269531,
				3.7989001274108887,
				0.7280048131942749
			]
		}
	],
	"materials":[
		{
			"alphaMode":"BLEND",
			"doubleSided":true,
			"extensions":{
				"KHR_materials_specular":{
					"specularColorFactor":[
						0.474271529955476,
						0.474271529955476,
						0.474271529955476
					]
				},
				"KHR_materials_ior":{
					"ior":1.4500000476837158
				}
			},
			"name":"0588ffb4.dds.008",
			"pbrMetallicRoughness":{
				"roughnessFactor":0.858578622341156
			}
		},
		{
			"doubleSided":true,
			"extensions":{
				"KHR_materials_specular":{
					"specularColorFactor":[
						0.5952107306945024,
						0.5952107306945024,
						0.5952107306945024
					]
				},
				"KHR_materials_ior":{
					"ior":1.4500000476837158
				}
			},
			"name":"C006_Grid_3_alpha_915",
			"pbrMetallicRoughness":{
				"baseColorTexture":{
					"index":0
				},
				"metallicFactor":0,
				"roughnessFactor":0.7809109687805176
			}
		},
		{
			"doubleSided":true,
			"extensions":{
				"KHR_materials_specular":{
					"specularColorFactor":[
						0.5928394036103495,
						0.5928394036103495,
						0.5928394036103495
					]
				},
				"KHR_materials_ior":{
					"ior":1.4500000476837158
				}
			},
			"name":"CM001_Propeller_103",
			"pbrMetallicRoughness":{
				"baseColorTexture":{
					"index":1
				},
				"metallicFactor":0,
				"roughnessFactor":0.8267949223518372
			}
		},
		{
			"doubleSided":true,
			"extensions":{
				"KHR_materials_specular":{
					"specularColorFactor":[
						0,
						0,
						0
					]
				},
				"KHR_materials_ior":{
					"ior":1.4500000476837158
				}
			},
			"name":"Material #3920.007",
			"pbrMetallicRoughness":{
				"baseColorTexture":{
					"index":2
				},
				"roughnessFactor":0.858578622341156
			}
		}
	],
	"meshes":[
		{
			"name":"\u7f51\u683c.112",
			"primitives":[
				{
					"attributes":{
						"POSITION":0,
						"NORMAL":1,
						"TEXCOORD_0":2
					},
					"indices":3,
					"material":0
				}
			]
		},
		{
			"name":"\u7f51\u683c.113",
			"primitives":[
				{
					"attributes":{
						"POSITION":4,
						"NORMAL":5,
						"TEXCOORD_0":6
					},
					"indices":7,
					"material":1
				}
			]
		},
		{
			"name":"\u7f51\u683c.114",
			"primitives":[
				{
					"attributes":{
						"POSITION":8,
						"NORMAL":9,
						"TEXCOORD_0":10
					},
					"indices":7,
					"material":2
				}
			]
		},
		{
			"name":"\u7f51\u683c.115",
			"primitives":[
				{
					"attributes":{
						"POSITION":11,
						"NORMAL":12,
						"TEXCOORD_0":13
					},
					"indices":14,
					"material":3
				}
			]
		},
		{
			"name":"\u7f51\u683c.116",
			"primitives":[
				{
					"attributes":{
						"POSITION":15,
						"NORMAL":16,
						"TEXCOORD_0":17
					},
					"indices":18,
					"material":3
				}
			]
		}
	],
	"textures":[
		{
			"sampler":0,
			"source":0
		},
		{
			"sampler":0,
			"source":0
		},
		{
			"sampler":0,
			"source":1
		}
	],
	"images":[
		{
			"bufferView":8,
			"mimeType":"image/jpeg",
			"name":"3fea26f0"
		},
		{
			"bufferView":16,
			"mimeType":"image/jpeg",
			"name":"3fea26f0"
		}
	],
	"accessors":[
		{
			"bufferView":0,
			"componentType":5126,
			"count":95,
			"max":[
				1.1624979972839355,
				1.242640495300293,
				-13.154115676879883
			],
			"min":[
				-0.6532987952232361,
				-1.2328691482543945,
				-13.591255187988281
			],
			"type":"VEC3"
		},
		{
			"bufferView":1,
			"componentType":5126,
			"count":95,
			"type":"VEC3"
		},
		{
			"bufferView":2,
			"componentType":5126,
			"count":95,
			"type":"VEC2"
		},
		{
			"bufferView":3,
			"componentType":5123,
			"count":198,
			"type":"SCALAR"
		},
		{
			"bufferView":4,
			"componentType":5126,
			"count":286,
			"max":[
				2.0767769813537598,
				3.0611395835876465,
				-13.845174789428711
			],
			"min":[
				1.287679672241211,
				-2.8124537467956543,
				-15.791566848754883
			],
			"type":"VEC3"
		},
		{
			"bufferView":5,
			"componentType":5126,
			"count":286,
			"type":"VEC3"
		},
		{
			"bufferView":6,
			"componentType":5126,
			"count":286,
			"type":"VEC2"
		},
		{
			"bufferView":7,
			"componentType":5123,
			"count":552,
			"type":"SCALAR"
		},
		{
			"bufferView":9,
			"componentType":5126,
			"count":286,
			"max":[
				-0.8652424216270447,
				2.969125270843506,
				-13.806456565856934
			],
			"min":[
				-1.654336929321289,
				-2.9040963649749756,
				-15.804779052734375
			],
			"type":"VEC3"
		},
		{
			"bufferView":10,
			"componentType":5126,
			"count":286,
			"type":"VEC3"
		},
		{
			"bufferView":11,
			"componentType":5126,
			"count":286,
			"type":"VEC2"
		},
		{
			"bufferView":12,
			"componentType":5126,
			"count":15984,
			"max":[
				2.170875310897827,
				4.191695690155029,
				-13.717145919799805
			],
			"min":[
				-1.7377510070800781,
				-3.1711907386779785,
				-15.72201919555664
			],
			"type":"VEC3"
		},
		{
			"bufferView":13,
			"componentType":5126,
			"count":15984,
			"type":"VEC3"
		},
		{
			"bufferView":14,
			"componentType":5126,
			"count":15984,
			"type":"VEC2"
		},
		{
			"bufferView":15,
			"componentType":5123,
			"count":35304,
			"type":"SCALAR"
		},
		{
			"bufferView":17,
			"componentType":5126,
			"count":13635,
			"max":[
				1.8685634136199951,
				2.58907413482666,
				-11.578229904174805
			],
			"min":[
				-1.4314208030700684,
				-5.450128555297852,
				-14.321756362915039
			],
			"type":"VEC3"
		},
		{
			"bufferView":18,
			"componentType":5126,
			"count":13635,
			"type":"VEC3"
		},
		{
			"bufferView":19,
			"componentType":5126,
			"count":13635,
			"type":"VEC2"
		},
		{
			"bufferView":20,
			"componentType":5123,
			"count":29883,
			"type":"SCALAR"
		}
	],
	"bufferViews":[
		{
			"buffer":0,
			"byteLength":1140,
			"byteOffset":0,
			"target":34962
		},
		{
			"buffer":0,
			"byteLength":1140,
			"byteOffset":1140,
			"target":34962
		},
		{
			"buffer":0,
			"byteLength":760,
			"byteOffset":2280,
			"target":34962
		},
		{
			"buffer":0,
			"byteLength":396,
			"byteOffset":3040,
			"target":34963
		},
		{
			"buffer":0,
			"byteLength":3432,
			"byteOffset":3436,
			"target":34962
		},
		{
			"buffer":0,
			"byteLength":3432,
			"byteOffset":6868,
			"target":34962
		},
		{
			"buffer":0,
			"byteLength":2288,
			"byteOffset":10300,
			"target":34962
		},
		{
			"buffer":0,
			"byteLength":1104,
			"byteOffset":12588,
			"target":34963
		},
		{
			"buffer":0,
			"byteLength":146363,
			"byteOffset":13692
		},
		{
			"buffer":0,
			"byteLength":3432,
			"byteOffset":160056,
			"target":34962
		},
		{
			"buffer":0,
			"byteLength":3432,
			"byteOffset":163488,
			"target":34962
		},
		{
			"buffer":0,
			"byteLength":2288,
			"byteOffset":166920,
			"target":34962
		},
		{
			"buffer":0,
			"byteLength":191808,
			"byteOffset":169208,
			"target":34962
		},
		{
			"buffer":0,
			"byteLength":191808,
			"byteOffset":361016,
			"target":34962
		},
		{
			"buffer":0,
			"byteLength":127872,
			"byteOffset":552824,
			"target":34962
		},
		{
			"buffer":0,
			"byteLength":70608,
			"byteOffset":680696,
			"target":34963
		},
		{
			"buffer":0,
			"byteLength":145922,
			"byteOffset":751304
		},
		{
			"buffer":0,
			"byteLength":163620,
			"byteOffset":897228,
			"target":34962
		},
		{
			"buffer":0,
			"byteLength":163620,
			"byteOffset":1060848,
			"target":34962
		},
		{
			"buffer":0,
			"byteLength":109080,
			"byteOffset":1224468,
			"target":34962
		},
		{
			"buffer":0,
			"byteLength":59766,
			"byteOffset":1333548,
			"target":34963
		}
	],
	"samplers":[
		{
			"magFilter":9729,
			"minFilter":9987
		}
	],
	"buffers":[
		{
			"byteLength":1393316,
			"uri":"data:application/octet-stream;base64,"
		}
	]
}
